# xmcd CD database file
#
# Track frame offsets:
#	150
#	27292
#	45815
#
# Disc length: 946 seconds
#
# Revision: 2
# Processed by: cddbd v1.5.2PL0 Copyright (c) Steve Scherf et al.
# Submitted via: CDex 1.79
#
DISCID=1503b003
DTITLE=Jimmy Nail - Big River [CDM)
DYEAR=1995
DGENRE=Country
TTITLE0=Big River
TTITLE1=Bitter And Twisted (Live Version)
TTITLE2=What Kind Of Man Am I? (Live Version)
EXTD=YEAR: 1995
EXTT0=
EXTT1=
EXTT2=
PLAYORDER=
